<?xml version="1.0" encoding="UTF-8"?>
<svg id="Layer_2" data-name="Layer 2" xmlns="http://www.w3.org/2000/svg" viewBox="0 0 730 730">
  <defs>
    <style>
      .cls-1 {
        fill: #fff;
      }

      .cls-2 {
        fill: #1d3539;
      }
    </style>
  </defs>
  <g id="Layer_1-2" data-name="Layer 1">
    <circle class="cls-2" cx="365" cy="365" r="365"/>
    <g>
      <path class="cls-1" d="m486.5,567.5s-43,14-73.73,14-55.27-23-92.27-23c-18.5,0-38.25,5.75-53.38,11.5l-25.62-16.35s25-22.15,25-68.15-33-61-33-105-9-57-38-80-28-72.6,0-47.8c28,24.8,38,24.69,48,2.8,10-21.89,45-136,126-135s105.15,51.52,104.57,98.76,12.43,70.24,29.43,71.24,38-26,49-16-2,35-38,52-53.64,34.18-40,66c9,21,23,49,23,83s-11.43,53.5-11,92Z"/>
      <ellipse class="cls-2" cx="333.25" cy="220.16" rx="22" ry="15.97" transform="translate(69.94 520.47) rotate(-82.21)"/>
      <ellipse class="cls-2" cx="413.64" cy="230.15" rx="22" ry="15.97" transform="translate(129.53 608.77) rotate(-82.21)"/>
    </g>
  </g>
</svg>